#!OML:ASF H:\Dans Jumps\Project 1\Capture day 1\Session 1\subject.ASF
:FULLY-SPECIFIED
:DEGREES
121
root -0.12986 16.9514 -15.126 12.7121 -1.58926 -1.97963
lowerback 10.2699 0.0349475 0.506087
upperback 8.60731 0.0486036 1.48243
thorax 3.21973 -0.00046044 1.25121
lowerneck -14.7982 0.699841 -1.16829
upperneck 31.5952 1.2164 0.355802
head 13.0124 0.432634 0.525668
rclavicle 1.98785e-015 -5.66536e-015
rhumerus -36.0435 -17.2026 -73.102
rradius 24.5058
rwrist 30.0022
rhand -19.7898 -25.7182
rfingers 7.12502
rthumb 6.5427 -55.5971
lclavicle 1.98785e-015 -5.66536e-015
lhumerus -31.0452 2.19685 84.5308
lradius 18.8574
lwrist 11.4455
lhand -27.5679 -5.10721
lfingers 7.12502
lthumb -0.968588 24.8703
rfemur -36.4535 -2.57049 20.5721
rtibia 41.6825
rfoot -16.9686 -1.4118
rtoes 6.98903
lfemur -35.7366 8.17411 -18.9327
ltibia 41.0986
lfoot -15.8339 6.9634
ltoes 0.869237
122
root -0.126266 16.9531 -15.1236 12.7112 -1.58701 -1.99172
lowerback 10.2707 0.0292504 0.490235
upperback 8.60733 0.0397171 1.50095
thorax 3.21951 -0.0062253 1.28
lowerneck -14.8151 0.712866 -1.15482
upperneck 31.6565 1.24285 0.322008
head 13.0421 0.440713 0.51474
rclavicle -8.94531e-016 -1.19271e-015
rhumerus -36.0519 -17.151 -73.0641
rradius 24.5143
rwrist 29.9913
rhand -19.7711 -25.6943
rfingers 7.12502
rthumb 6.56084 -55.5727
lclavicle -8.94531e-016 -1.19271e-015
lhumerus -31.0429 2.16998 84.5596
lradius 18.926
lwrist 11.5428
lhand -27.574 -5.12782
lfingers 7.12502
lthumb -0.974496 24.8497
rfemur -36.42 -2.57816 20.5732
rtibia 41.6388
rfoot -16.9526 -1.40438
rtoes 6.96601
lfemur -35.7105 8.17784 -18.9326
ltibia 41.0706
lfoot -15.8287 6.9582
ltoes 0.857545
123
root -0.122717 16.9547 -15.1209 12.7076 -1.58742 -2.00442
lowerback 10.2704 0.0241221 0.475193
upperback 8.60567 0.0316421 1.51925
thorax 3.21811 -0.0115363 1.30803
lowerneck -14.8211 0.729123 -1.13898
upperneck 31.7055 1.27311 0.287977
head 13.0642 0.45081 0.503719
rclavicle 9.93923e-017 -6.06293e-015
rhumerus -36.063 -17.0748 -73.0414
rradius 24.5555
rwrist 29.9395
rhand -19.7572 -25.6697
rfingers 7.12502
rthumb 6.57425 -55.5477
lclavicle 9.93923e-017 -6.06293e-015
lhumerus -31.036 2.10995 84.6032
lradius 18.9999
lwrist 11.6729
lhand -27.5806 -5.15045
lfingers 7.12502
lthumb -0.980879 24.827
rfemur -36.3857 -2.58497 20.5746
rtibia 41.5996
rfoot -16.9394 -1.39557
rtoes 6.94082
lfemur -35.6822 8.18424 -18.9319
ltibia 41.0462
lfoot -15.8248 6.95324
ltoes 0.84277
124
root -0.119217 16.9561 -15.118 12.7017 -1.59006 -2.01643
lowerback 10.2678 0.0205402 0.461453
upperback 8.60398 0.0256911 1.53532
thorax 3.21793 -0.0156592 1.33287
lowerneck -14.8154 0.746965 -1.12634
upperneck 31.7352 1.304 0.261026
head 13.0756 0.46191 0.495891
rclavicle 6.26172e-015 5.96354e-015
rhumerus -36.0724 -16.9947 -73.0295
rradius 24.6187
rwrist 29.8673
rhand -19.7523 -25.6411
rfingers 7.12502
rthumb 6.5789 -55.5189
lclavicle 6.26172e-015 5.96354e-015
lhumerus -31.0221 2.00558 84.6619
lradius 19.0807
lwrist 11.8374
lhand -27.5875 -5.1773
lfingers 7.12502
lthumb -0.987532 24.8002
rfemur -36.3508 -2.5904 20.5748
rtibia 41.5646
rfoot -16.9286 -1.38598
rtoes 6.91902
lfemur -35.6522 8.19061 -18.9317
ltibia 41.0248
lfoot -15.8208 6.95189
ltoes 0.82127
